<?xml version="1.0" standalone="no"?>
<!DOCTYPE svg PUBLIC "-//W3C//DTD SVG 20010904//EN"
 "http://www.w3.org/TR/2001/REC-SVG-20010904/DTD/svg10.dtd">
<svg version="1.0" xmlns="http://www.w3.org/2000/svg"
 width="603.000000pt" height="650.000000pt" viewBox="0 0 603.000000 650.000000"
 preserveAspectRatio="xMidYMid meet">

<g transform="translate(0.000000,650.000000) scale(0.100000,-0.100000)"
fill="#000000" stroke="none">
<path d="M3510 6470 c0 -16 5 -30 10 -30 6 0 10 14 10 30 0 17 -4 30 -10 30
-5 0 -10 -13 -10 -30z"/>
<path d="M3586 6484 c-18 -46 -81 -44 1145 -44 l1151 0 29 -29 29 -29 0 -397
0 -397 23 6 c12 3 32 6 45 6 l22 0 0 450 0 450 -1219 0 c-1102 0 -1219 -2
-1225 -16z"/>
<path d="M2632 6465 c0 -16 2 -22 5 -12 2 9 2 23 0 30 -3 6 -5 -1 -5 -18z"/>
<path d="M2572 6460 c0 -14 2 -19 5 -12 2 6 2 18 0 25 -3 6 -5 1 -5 -13z"/>
<path d="M205 6323 c-31 -35 -32 -57 0 -88 26 -27 41 -30 78 -16 47 18 42 112
-6 125 -37 10 -45 7 -72 -21z m82 -43 c0 -36 -1 -37 -37 -37 -36 0 -37 1 -37
37 0 36 1 37 37 37 36 0 37 -1 37 -37z"/>
<path d="M5330 6328 c-40 -44 -12 -118 45 -118 31 0 75 41 75 70 0 29 -44 70
-74 70 -14 0 -34 -10 -46 -22z m85 -28 c9 -14 -22 -60 -40 -60 -16 0 -48 54
-38 64 10 10 71 7 78 -4z"/>
<path d="M427 6322 c-21 -23 -22 -56 -1 -76 19 -20 74 -21 74 -3 0 8 -10 13
-21 13 -30 -1 -47 27 -29 49 7 9 22 14 32 12 11 -3 18 0 18 9 0 21 -54 18 -73
-4z"/>
<path d="M581 6330 c-1 -28 26 -104 39 -108 9 -3 10 2 5 19 -15 45 -44 104
-44 89z"/>
<path d="M640 6297 c0 -50 13 -67 52 -67 33 0 48 24 48 74 0 25 -4 36 -15 36
-10 0 -15 -10 -15 -32 0 -18 -4 -39 -9 -47 -15 -23 -31 -2 -31 40 0 28 -4 39
-15 39 -11 0 -15 -11 -15 -43z"/>
<path d="M1100 6333 c0 -17 36 -113 43 -113 10 0 9 4 -9 66 -8 30 -20 54 -25
54 -5 0 -9 -3 -9 -7z"/>
<path d="M1160 6285 l0 -55 40 0 c42 0 56 16 18 22 -32 5 -35 28 -3 28 15 0
24 4 20 10 -3 6 -15 10 -26 10 -11 0 -17 5 -14 10 3 6 15 10 26 10 10 0 19 5
19 10 0 6 -18 10 -40 10 l-40 0 0 -55z"/>
<path d="M1260 6285 c0 -42 3 -55 15 -55 12 0 15 13 15 55 0 42 -3 55 -15 55
-12 0 -15 -13 -15 -55z"/>
<path d="M1310 6285 c0 -42 3 -55 15 -55 12 0 15 13 15 55 0 42 -3 55 -15 55
-12 0 -15 -13 -15 -55z"/>
<path d="M1450 6333 c0 -17 36 -113 43 -113 10 0 9 4 -9 66 -8 30 -20 54 -25
54 -5 0 -9 -3 -9 -7z"/>
<path d="M1510 6285 l0 -55 40 0 c42 0 56 16 18 22 -32 5 -35 28 -3 28 15 0
24 4 20 10 -3 6 -15 10 -26 10 -11 0 -17 5 -14 10 3 6 15 10 26 10 10 0 19 5
19 10 0 6 -18 10 -40 10 l-40 0 0 -55z"/>
<path d="M1610 6285 c0 -42 3 -55 15 -55 12 0 15 13 15 55 0 42 -3 55 -15 55
-12 0 -15 -13 -15 -55z"/>
<path d="M1660 6285 c0 -42 3 -55 15 -55 12 0 15 13 15 55 0 42 -3 55 -15 55
-12 0 -15 -13 -15 -55z"/>
<path d="M1880 6285 c0 -30 5 -55 10 -55 6 0 10 7 10 15 0 8 4 15 9 15 5 0 14
-7 21 -15 7 -8 22 -15 33 -15 20 0 20 1 -6 27 l-27 27 27 28 c25 26 26 28 6
28 -11 0 -26 -7 -33 -15 -7 -8 -16 -15 -21 -15 -5 0 -9 7 -9 15 0 8 -4 15 -10
15 -5 0 -10 -25 -10 -55z"/>
<path d="M2200 6285 c0 -43 3 -55 15 -55 13 0 15 11 13 55 -4 76 -28 76 -28 0z"/>
<path d="M2340 6332 c0 -23 32 -112 41 -112 10 0 4 37 -17 88 -12 30 -24 42
-24 24z"/>
<path d="M2407 6333 c-16 -15 -6 -44 18 -53 29 -11 34 -33 7 -28 -11 2 -21 -1
-23 -7 -6 -15 50 -18 67 -4 23 19 16 39 -16 53 -31 13 -30 26 2 26 10 0 18 5
18 10 0 11 -63 14 -73 3z"/>
<path d="M2760 6324 c0 -10 -6 -13 -19 -9 -24 7 -43 -17 -39 -52 3 -25 7 -28
46 -31 l42 -3 0 55 c0 43 -3 56 -15 56 -8 0 -15 -7 -15 -16z m-5 -54 c0 -7 -6
-15 -12 -17 -8 -3 -13 4 -13 17 0 13 5 20 13 18 6 -3 12 -11 12 -18z"/>
<path d="M2812 6285 c-3 -45 0 -55 13 -55 12 0 15 11 14 55 -1 32 -7 55 -13
55 -6 0 -12 -23 -14 -55z"/>
<path d="M3131 6330 c-1 -28 26 -104 39 -108 9 -3 10 2 5 19 -15 45 -44 104
-44 89z"/>
<path d="M3197 6333 c-15 -15 -5 -44 18 -55 14 -6 25 -15 25 -21 0 -5 -11 -6
-25 -3 -18 5 -25 2 -25 -9 0 -19 63 -21 79 -1 16 19 3 45 -25 52 -32 8 -31 24
1 24 14 0 25 5 25 10 0 11 -63 14 -73 3z"/>
<path d="M4012 6331 c-9 -5 -12 -24 -10 -52 3 -43 4 -44 38 -44 32 0 35 2 35
30 0 23 -5 31 -22 33 -31 5 -29 22 3 22 14 0 23 4 19 10 -7 12 -45 13 -63 1z
m38 -66 c0 -8 -4 -15 -10 -15 -5 0 -10 7 -10 15 0 8 5 15 10 15 6 0 10 -7 10
-15z"/>
<path d="M4090 6332 c0 -23 32 -112 41 -112 10 0 4 37 -17 88 -12 30 -24 42
-24 24z"/>
<path d="M4157 6333 c-16 -15 -6 -44 18 -53 29 -11 34 -33 7 -28 -11 2 -21 -1
-23 -7 -6 -15 50 -18 67 -4 23 19 16 39 -16 53 -31 13 -30 26 2 26 10 0 18 5
18 10 0 11 -63 14 -73 3z"/>
<path d="M4250 6338 c0 -3 7 -28 15 -56 12 -40 20 -52 35 -52 15 0 20 7 20 24
0 36 17 40 24 6 4 -21 11 -30 25 -30 15 0 20 10 26 46 5 39 9 45 28 42 18 -2
23 -11 25 -45 2 -29 8 -43 18 -43 10 0 14 12 14 45 0 68 39 59 55 -12 3 -18
11 -35 16 -38 13 -8 11 3 -6 63 l-16 52 -74 0 c-68 0 -74 -2 -77 -22 -5 -32
-28 -35 -28 -4 0 30 -27 36 -36 9 -15 -45 -17 -47 -23 -18 -4 17 -13 31 -24
33 -9 2 -17 2 -17 0z"/>
<path d="M4587 6333 c-4 -3 -7 -16 -7 -29 0 -15 8 -24 25 -28 14 -4 25 -11 25
-17 0 -7 -11 -9 -25 -7 -17 4 -25 1 -25 -9 0 -10 10 -13 38 -11 32 3 37 7 40
29 2 21 -2 28 -22 33 -15 3 -26 11 -26 17 0 6 9 9 20 6 13 -3 20 0 20 9 0 14
-50 20 -63 7z"/>
<path d="M4680 6332 c0 -5 7 -29 16 -55 22 -64 45 -63 73 2 25 59 25 61 6 61
-8 0 -21 -15 -28 -32 l-14 -33 -17 33 c-15 29 -36 43 -36 24z"/>
<path d="M4818 6329 c-12 -6 -18 -22 -18 -44 0 -39 24 -58 68 -53 21 2 28 9
30 31 3 23 0 27 -24 27 -23 0 -25 -2 -14 -15 18 -22 3 -32 -18 -12 -23 24 -4
53 33 50 17 -1 25 2 22 10 -5 16 -57 20 -79 6z"/>
<path d="M5000 6333 c0 -17 36 -113 43 -113 10 0 9 4 -9 66 -8 30 -20 54 -25
54 -5 0 -9 -3 -9 -7z"/>
<path d="M5120 6324 c0 -9 -6 -14 -12 -11 -20 7 -48 -12 -48 -33 0 -39 11 -50
51 -50 l39 0 0 55 c0 42 -3 55 -15 55 -8 0 -15 -7 -15 -16z m-2 -51 c-4 -22
-22 -20 -26 1 -2 10 3 16 13 16 10 0 15 -7 13 -17z"/>
<path d="M2511 6316 c-8 -10 -9 -20 -2 -33 5 -10 12 -26 15 -35 6 -19 46 -25
46 -8 0 6 -4 10 -10 10 -14 0 -12 37 3 44 8 3 6 9 -7 20 -24 20 -30 20 -45 2z"/>
<path d="M3747 6316 c-3 -8 -1 -31 4 -50 7 -26 16 -36 29 -36 21 0 27 15 10
25 -15 10 -12 35 5 35 20 0 19 10 -2 26 -23 17 -40 17 -46 0z"/>
<path d="M773 6313 c-21 -8 -15 -39 10 -51 l22 -11 -22 0 c-13 -1 -23 -6 -23
-12 0 -6 14 -9 33 -7 24 2 33 8 35 26 3 17 -2 22 -20 23 -23 1 -23 1 2 8 l25
7 -22 12 c-12 7 -23 12 -25 11 -2 0 -9 -3 -15 -6z"/>
<path d="M862 6304 c-42 -29 -19 -79 34 -72 22 2 27 9 30 35 3 24 -1 35 -15
43 -25 13 -22 13 -49 -6z m43 -44 c3 -5 -1 -10 -9 -10 -9 0 -16 5 -16 10 0 6
4 10 9 10 6 0 13 -4 16 -10z"/>
<path d="M978 6312 c-25 -3 -28 -7 -28 -43 0 -28 4 -39 15 -39 9 0 15 9 15 25
0 26 27 46 39 28 3 -5 15 -15 26 -21 19 -11 19 -11 -2 -12 -13 0 -23 -5 -23
-11 0 -6 14 -9 33 -7 24 2 33 8 35 25 2 16 -3 23 -20 26 l-23 4 23 2 c12 0 22
5 22 10 0 15 -40 24 -54 12 -7 -6 -17 -7 -22 -3 -5 4 -21 6 -36 4z"/>
<path d="M1374 6305 c-18 -14 -18 -14 6 -16 l25 -1 -25 -7 c-16 -4 -25 -14
-25 -26 0 -16 8 -21 43 -23 l42 -3 0 35 c0 25 -6 38 -19 46 -25 13 -23 13 -47
-5z"/>
<path d="M1724 6305 c-18 -14 -18 -14 6 -16 l25 -1 -25 -7 c-16 -4 -25 -14
-25 -26 0 -16 8 -21 43 -23 l42 -3 0 35 c0 25 -6 38 -19 46 -25 13 -23 13 -47
-5z"/>
<path d="M2002 6304 c-37 -26 -23 -74 23 -74 44 0 63 60 26 80 -25 13 -22 13
-49 -6z m38 -35 c0 -24 -23 -21 -28 4 -2 10 3 17 12 17 10 0 16 -9 16 -21z"/>
<path d="M2118 6312 c-27 -3 -28 -6 -28 -58 0 -51 14 -72 26 -39 4 8 16 15 29
15 23 0 35 17 35 50 0 24 -26 37 -62 32z m30 -39 c-4 -22 -22 -20 -26 1 -2 10
3 16 13 16 10 0 15 -7 13 -17z"/>
<path d="M2262 6304 c-42 -29 -19 -79 34 -72 22 2 27 9 30 35 3 24 -1 35 -15
43 -25 13 -22 13 -49 -6z m43 -44 c3 -5 -1 -10 -9 -10 -9 0 -16 5 -16 10 0 6
4 10 9 10 6 0 13 -4 16 -10z"/>
<path d="M3008 6312 c-25 -3 -28 -7 -28 -43 0 -44 17 -54 22 -12 4 39 28 42
28 4 0 -21 5 -31 15 -31 10 0 15 10 15 30 0 17 5 30 10 30 6 0 10 -13 10 -30
0 -20 5 -30 15 -30 19 0 21 65 3 77 -14 8 -46 10 -90 5z"/>
<path d="M3312 6304 c-42 -29 -19 -79 34 -72 22 2 27 9 30 35 3 24 -1 35 -15
43 -25 13 -22 13 -49 -6z m43 -44 c3 -5 -1 -10 -9 -10 -9 0 -16 5 -16 10 0 6
4 10 9 10 6 0 13 -4 16 -10z"/>
<path d="M3428 6312 c-25 -3 -28 -7 -28 -43 0 -28 4 -39 15 -39 10 0 15 10 15
30 0 17 5 30 10 30 6 0 13 -13 17 -30 7 -38 21 -39 25 -2 2 15 8 27 13 27 6 0
11 -12 13 -27 2 -16 9 -28 18 -28 16 0 19 46 5 68 -8 14 -53 20 -103 14z"/>
<path d="M3582 6313 c-22 -9 -34 -41 -22 -63 8 -14 21 -20 45 -20 33 0 35 2
35 35 0 24 -6 37 -19 45 -11 5 -21 10 -23 9 -2 0 -9 -3 -16 -6z m43 -53 c3 -5
-3 -10 -15 -10 -12 0 -18 5 -15 10 3 6 10 10 15 10 5 0 12 -4 15 -10z"/>
<path d="M3673 6313 c-21 -8 -15 -39 10 -51 l22 -11 -22 0 c-13 -1 -23 -6 -23
-12 0 -6 14 -9 33 -7 24 2 33 8 35 26 3 17 -2 22 -20 23 -23 1 -23 1 2 8 l25
7 -22 12 c-12 7 -23 12 -25 11 -2 0 -9 -3 -15 -6z"/>
<path d="M3838 6309 c-21 -12 -24 -49 -6 -67 7 -7 25 -12 40 -12 25 0 28 4 28
33 0 50 -25 68 -62 46z m47 -49 c3 -5 -1 -10 -9 -10 -9 0 -16 5 -16 10 0 6 4
10 9 10 6 0 13 -4 16 -10z"/>
<path d="M3958 6313 c-25 -4 -28 -8 -28 -44 0 -46 15 -52 24 -9 3 18 12 30 21
30 8 0 15 7 15 15 0 8 -1 14 -2 14 -2 -1 -15 -4 -30 -6z"/>
<path d="M4932 6308 c-18 -18 -15 -34 11 -46 l22 -11 -22 0 c-13 -1 -23 -6
-23 -12 0 -6 14 -9 33 -7 24 2 33 8 35 25 2 16 -3 23 -20 26 l-23 4 23 2 c25
1 29 16 6 25 -22 8 -28 8 -42 -6z"/>
<path d="M5193 6309 c-15 -5 -23 -17 -23 -32 0 -48 46 -62 90 -26 24 21 24 21
5 36 -36 27 -50 31 -72 22z m35 -36 c-5 -25 -28 -28 -28 -4 0 12 6 21 16 21 9
0 14 -7 12 -17z"/>
<path d="M532 6299 c2 -6 8 -10 13 -10 5 0 11 4 13 10 2 6 -4 11 -13 11 -9 0
-15 -5 -13 -11z"/>
<path d="M2592 6273 c3 -36 5 -38 41 -41 l37 -3 0 41 c0 49 -21 51 -31 4 -5
-26 -7 -27 -13 -9 -5 11 -10 26 -12 33 -8 28 -25 10 -22 -25z"/>
<path d="M2864 6295 c-4 -8 -3 -26 0 -40 6 -22 12 -25 47 -25 l40 0 -3 37 c-4
44 -25 56 -30 16 -4 -34 -22 -33 -26 2 -4 28 -19 33 -28 10z"/>
<path d="M1815 6270 c3 -5 12 -10 20 -10 8 0 17 5 20 10 4 6 -5 10 -20 10 -15
0 -24 -4 -20 -10z"/>
<path d="M530 6246 c0 -9 7 -16 16 -16 17 0 14 22 -4 28 -7 2 -12 -3 -12 -12z"/>
<path d="M50 6220 c20 -13 40 -13 40 0 0 6 -12 10 -27 10 -22 0 -25 -2 -13
-10z"/>
<path d="M50 6160 c20 -13 40 -13 40 0 0 6 -12 10 -27 10 -22 0 -25 -2 -13
-10z"/>
<path d="M150 3145 l0 -2955 2865 0 2865 0 0 2955 0 2955 -2865 0 -2865 0 0
-2955z m5715 0 l0 -2940 -2850 0 -2850 0 -3 2930 c-1 1612 0 2936 3 2943 3 10
579 12 2852 10 l2848 -3 0 -2940z"/>
<path d="M612 5543 c3 -85 4 -88 29 -93 14 -3 37 -15 52 -26 l27 -22 0 -2251
0 -2251 -55 0 -55 0 0 -85 c0 -82 1 -85 23 -85 13 0 34 -11 47 -25 30 -32 40
-32 40 0 0 21 5 25 30 25 25 0 30 4 30 25 l0 25 2205 0 2205 0 0 -25 c0 -20 5
-25 25 -25 16 0 36 -12 55 -33 l29 -32 1 33 c0 29 3 32 30 32 25 0 30 4 30 25
0 17 7 28 21 33 l20 8 -20 18 c-13 12 -21 31 -21 53 0 30 -3 33 -30 33 l-30 0
0 2274 0 2275 28 3 c22 2 28 8 30 36 3 25 8 32 24 32 l21 0 -20 23 c-12 12
-23 36 -25 52 l-3 30 -82 3 -83 3 0 -56 0 -55 -2183 0 -2184 0 -20 23 c-12 12
-23 36 -25 52 l-3 30 -83 3 -83 3 3 -88z"/>
<path d="M1 5886 c10 -8 89 -13 89 -5 0 5 -21 9 -47 9 -25 0 -44 -2 -42 -4z"/>
<path d="M38 5823 c12 -2 30 -2 40 0 9 3 -1 5 -23 4 -22 0 -30 -2 -17 -4z"/>
<path d="M5977 5473 c-4 -3 -7 -17 -7 -30 0 -14 -6 -23 -15 -23 -8 0 -15 -7
-15 -15 0 -9 9 -15 25 -15 23 0 25 4 25 45 0 46 -2 50 -13 38z"/>
<path d="M5940 5260 c0 -5 20 -10 45 -10 25 0 45 5 45 10 0 6 -20 10 -45 10
-25 0 -45 -4 -45 -10z"/>
<path d="M28 5093 c12 -2 32 -2 45 0 12 2 2 4 -23 4 -25 0 -35 -2 -22 -4z"/>
<path d="M5940 5007 c0 -36 3 -68 8 -71 4 -2 24 -7 45 -11 l37 -7 0 71 0 71
-29 0 c-16 0 -36 3 -45 6 -14 5 -16 -4 -16 -59z"/>
<path d="M7 5033 c7 -2 15 -20 19 -39 3 -19 11 -37 17 -41 10 -6 5 23 -9 61
-4 10 -1 16 9 16 10 0 17 -11 19 -32 5 -49 28 -48 28 1 l0 41 -47 -1 c-27 0
-43 -3 -36 -6z"/>
<path d="M1 4836 c10 -8 89 -13 89 -5 0 5 -21 9 -47 9 -25 0 -44 -2 -42 -4z"/>
<path d="M5940 3891 l0 -121 33 -20 c56 -35 57 -33 57 115 0 133 0 135 -22
135 -13 0 -33 3 -45 6 -23 6 -23 6 -23 -115z"/>
<path d="M5940 2776 l0 -174 40 -36 c22 -20 42 -36 45 -36 3 0 5 95 5 210 l0
210 -45 0 -45 0 0 -174z"/>
<path d="M33 2324 c-28 -22 -33 -32 -33 -69 l0 -43 43 22 c39 21 42 26 45 69
4 55 -7 59 -55 21z"/>
<path d="M0 2120 c0 -5 20 -10 45 -10 25 0 45 5 45 10 0 6 -20 10 -45 10 -25
0 -45 -4 -45 -10z"/>
<path d="M5940 1892 c0 -4 17 -6 38 -4 58 5 62 10 10 11 -27 1 -48 -3 -48 -7z"/>
<path d="M5940 1830 c0 -5 4 -10 9 -10 6 0 13 5 16 10 3 6 -1 10 -9 10 -9 0
-16 -4 -16 -10z"/>
<path d="M0 1778 c0 -18 5 -28 15 -28 8 0 19 -9 25 -20 6 -11 20 -20 30 -20
27 0 25 16 -2 25 l-23 8 23 4 c15 3 22 11 22 29 0 28 -30 33 -50 9 -11 -13
-14 -13 -26 2 -12 16 -13 16 -14 -9z"/>
<path d="M5960 1050 c0 -585 3 -740 13 -740 9 0 11 152 9 734 -2 694 -1 735
15 739 11 3 8 5 -9 6 l-28 1 0 -740z"/>
<path d="M0 1719 c0 -5 5 -7 10 -4 5 3 10 8 10 11 0 2 -4 4 -10 4 -5 0 -10 -5
-10 -11z"/>
<path d="M0 1575 c0 -42 22 -77 38 -60 4 4 1 10 -5 12 -18 6 -16 50 1 60 12 6
10 11 -10 20 -23 11 -24 10 -24 -32z"/>
<path d="M60 1568 c0 -33 14 -67 24 -58 8 9 -6 90 -15 90 -5 0 -9 -15 -9 -32z"/>
<path d="M72 1398 c-16 -16 -15 -73 1 -86 10 -9 13 0 13 44 0 29 -1 54 -1 54
-1 0 -6 -5 -13 -12z"/>
<path d="M0 1360 c0 -22 5 -40 10 -40 6 0 10 11 10 25 0 14 7 28 15 31 24 9
17 24 -10 24 -22 0 -25 -4 -25 -40z"/>
<path d="M1 1214 c0 -11 3 -14 6 -6 3 7 2 16 -1 19 -3 4 -6 -2 -5 -13z"/>
<path d="M47 1223 c-4 -3 -7 -16 -7 -29 0 -15 7 -23 25 -26 17 -4 25 -1 25 8
0 8 -8 14 -17 14 -17 1 -17 1 0 14 9 7 17 16 17 20 0 8 -35 8 -43 -1z"/>
<path d="M40 1123 c0 -7 11 -13 25 -13 14 0 25 6 25 13 0 6 -11 12 -25 12 -14
0 -25 -6 -25 -12z"/>
<path d="M28 503 c12 -2 32 -2 45 0 12 2 2 4 -23 4 -25 0 -35 -2 -22 -4z"/>
<path d="M43 452 l-43 -3 0 -225 0 -224 474 0 473 0 6 57 c3 31 4 60 1 65 -3
4 -185 8 -404 8 l-399 0 -28 24 c-28 24 -28 26 -33 163 l-5 138 -42 -3z"/>
<path d="M5940 260 c0 -5 17 -10 38 -9 33 1 34 2 12 9 -36 11 -50 11 -50 0z"/>
<path d="M5922 168 c-15 -15 -16 -58 -2 -58 6 0 10 11 10 25 0 14 5 25 10 25
6 0 10 5 10 10 0 14 -13 13 -28 -2z"/>
<path d="M5960 171 c0 -5 8 -12 18 -14 16 -4 16 -5 0 -6 -11 -1 -18 -9 -18
-21 0 -15 7 -20 26 -20 23 0 25 3 22 33 -2 24 -8 33 -25 35 -13 2 -23 -1 -23
-7z"/>
<path d="M1235 120 c-4 -6 7 -10 24 -10 17 0 31 5 31 10 0 6 -11 10 -24 10
-14 0 -28 -4 -31 -10z"/>
<path d="M1310 120 c0 -5 5 -10 10 -10 6 0 10 5 10 10 0 6 -4 10 -10 10 -5 0
-10 -4 -10 -10z"/>
<path d="M1365 120 c-4 -6 5 -10 19 -10 14 0 26 5 26 10 0 6 -9 10 -19 10 -11
0 -23 -4 -26 -10z"/>
<path d="M1450 120 c0 -5 5 -10 10 -10 6 0 10 5 10 10 0 6 -4 10 -10 10 -5 0
-10 -4 -10 -10z"/>
<path d="M1490 120 c0 -5 5 -10 11 -10 5 0 7 5 4 10 -3 6 -8 10 -11 10 -2 0
-4 -4 -4 -10z"/>
<path d="M1530 120 c0 -5 11 -10 25 -10 14 0 25 5 25 10 0 6 -11 10 -25 10
-14 0 -25 -4 -25 -10z"/>
<path d="M1605 120 c-4 -6 7 -10 25 -10 18 0 29 4 25 10 -3 6 -15 10 -25 10
-10 0 -22 -4 -25 -10z"/>
<path d="M2120 120 c0 -5 11 -10 25 -10 14 0 25 5 25 10 0 6 -11 10 -25 10
-14 0 -25 -4 -25 -10z"/>
<path d="M2190 120 c0 -5 11 -10 25 -10 14 0 25 5 25 10 0 6 -11 10 -25 10
-14 0 -25 -4 -25 -10z"/>
<path d="M2260 120 c0 -5 5 -10 10 -10 6 0 10 5 10 10 0 6 -4 10 -10 10 -5 0
-10 -4 -10 -10z"/>
<path d="M2300 120 c0 -5 5 -10 10 -10 6 0 10 5 10 10 0 6 -4 10 -10 10 -5 0
-10 -4 -10 -10z"/>
<path d="M2340 120 c0 -5 11 -10 25 -10 14 0 25 5 25 10 0 6 -11 10 -25 10
-14 0 -25 -4 -25 -10z"/>
<path d="M2415 120 c-4 -6 7 -10 24 -10 17 0 31 5 31 10 0 6 -11 10 -24 10
-14 0 -28 -4 -31 -10z"/>
<path d="M2485 120 c-3 -5 1 -10 10 -10 9 0 13 5 10 10 -3 6 -8 10 -10 10 -2
0 -7 -4 -10 -10z"/>
<path d="M2530 120 c0 -5 11 -10 25 -10 14 0 25 5 25 10 0 6 -11 10 -25 10
-14 0 -25 -4 -25 -10z"/>
<path d="M2900 120 c0 -5 5 -10 10 -10 6 0 10 5 10 10 0 6 -4 10 -10 10 -5 0
-10 -4 -10 -10z"/>
<path d="M2935 120 c-3 -5 1 -10 10 -10 9 0 13 5 10 10 -3 6 -8 10 -10 10 -2
0 -7 -4 -10 -10z"/>
<path d="M2975 120 c-3 -5 -1 -10 4 -10 6 0 11 5 11 10 0 6 -2 10 -4 10 -3 0
-8 -4 -11 -10z"/>
<path d="M3015 120 c-3 -5 -1 -10 4 -10 6 0 11 5 11 10 0 6 -2 10 -4 10 -3 0
-8 -4 -11 -10z"/>
<path d="M3044 119 c-3 -6 -1 -16 6 -22 10 -9 14 -9 17 1 3 6 11 12 19 12 8 0
14 5 14 10 0 14 -47 13 -56 -1z"/>
<path d="M3125 120 c-3 -5 -1 -10 4 -10 6 0 11 5 11 10 0 6 -2 10 -4 10 -3 0
-8 -4 -11 -10z"/>
<path d="M3165 120 c-4 -6 7 -10 24 -10 17 0 31 5 31 10 0 6 -11 10 -24 10
-14 0 -28 -4 -31 -10z"/>
<path d="M3235 120 c-3 -5 1 -10 10 -10 9 0 13 5 10 10 -3 6 -8 10 -10 10 -2
0 -7 -4 -10 -10z"/>
<path d="M3275 120 c-3 -5 -1 -10 4 -10 6 0 11 5 11 10 0 6 -2 10 -4 10 -3 0
-8 -4 -11 -10z"/>
<path d="M3315 120 c-3 -5 -1 -10 4 -10 6 0 11 5 11 10 0 6 -2 10 -4 10 -3 0
-8 -4 -11 -10z"/>
<path d="M3355 120 c-4 -6 7 -10 25 -10 18 0 29 4 25 10 -3 6 -15 10 -25 10
-10 0 -22 -4 -25 -10z"/>
<path d="M3425 120 c-3 -5 -1 -10 4 -10 6 0 11 5 11 10 0 6 -2 10 -4 10 -3 0
-8 -4 -11 -10z"/>
<path d="M3460 120 c0 -5 5 -10 10 -10 6 0 10 5 10 10 0 6 -4 10 -10 10 -5 0
-10 -4 -10 -10z"/>
<path d="M3500 120 c0 -5 9 -10 21 -10 11 0 17 5 14 10 -3 6 -13 10 -21 10 -8
0 -14 -4 -14 -10z"/>
<path d="M3550 120 c0 -5 12 -10 26 -10 14 0 23 4 19 10 -3 6 -15 10 -26 10
-10 0 -19 -4 -19 -10z"/>
<path d="M3625 120 c-3 -5 -1 -10 4 -10 6 0 11 5 11 10 0 6 -2 10 -4 10 -3 0
-8 -4 -11 -10z"/>
<path d="M3950 120 c0 -5 7 -10 15 -10 8 0 15 5 15 10 0 6 -7 10 -15 10 -8 0
-15 -4 -15 -10z"/>
<path d="M4015 120 c-4 -6 7 -10 24 -10 17 0 31 5 31 10 0 6 -11 10 -24 10
-14 0 -28 -4 -31 -10z"/>
<path d="M4085 120 c-3 -5 1 -10 10 -10 9 0 13 5 10 10 -3 6 -8 10 -10 10 -2
0 -7 -4 -10 -10z"/>
<path d="M4130 120 c0 -5 11 -10 25 -10 14 0 25 5 25 10 0 6 -11 10 -25 10
-14 0 -25 -4 -25 -10z"/>
<path d="M4200 120 c0 -5 5 -10 10 -10 6 0 10 5 10 10 0 6 -4 10 -10 10 -5 0
-10 -4 -10 -10z"/>
<path d="M4240 120 c0 -5 12 -10 26 -10 14 0 23 4 19 10 -3 6 -15 10 -26 10
-10 0 -19 -4 -19 -10z"/>
<path d="M4310 120 c0 -5 5 -10 10 -10 6 0 10 5 10 10 0 6 -4 10 -10 10 -5 0
-10 -4 -10 -10z"/>
<path d="M4350 120 c0 -5 5 -10 10 -10 6 0 10 5 10 10 0 6 -4 10 -10 10 -5 0
-10 -4 -10 -10z"/>
<path d="M4380 120 c0 -5 11 -10 25 -10 14 0 25 5 25 10 0 6 -11 10 -25 10
-14 0 -25 -4 -25 -10z"/>
<path d="M4760 120 c0 -5 5 -10 10 -10 6 0 10 5 10 10 0 6 -4 10 -10 10 -5 0
-10 -4 -10 -10z"/>
<path d="M4795 120 c-3 -5 1 -10 9 -10 9 0 16 5 16 10 0 6 -4 10 -9 10 -6 0
-13 -4 -16 -10z"/>
<path d="M4833 118 c-2 -5 10 -8 26 -8 17 0 31 3 31 8 0 4 -12 7 -26 7 -14 0
-28 -3 -31 -7z"/>
<path d="M4910 120 c0 -5 5 -10 10 -10 6 0 10 5 10 10 0 6 -4 10 -10 10 -5 0
-10 -4 -10 -10z"/>
<path d="M4950 120 c0 -5 14 -10 31 -10 17 0 28 4 24 10 -3 6 -17 10 -31 10
-13 0 -24 -4 -24 -10z"/>
<path d="M5025 120 c-3 -5 -1 -10 4 -10 6 0 11 5 11 10 0 6 -2 10 -4 10 -3 0
-8 -4 -11 -10z"/>
<path d="M5075 120 c-3 -5 1 -10 10 -10 9 0 13 5 10 10 -3 6 -8 10 -10 10 -2
0 -7 -4 -10 -10z"/>
<path d="M5114 118 c-3 -4 20 -8 50 -8 31 0 56 5 56 10 0 12 -99 10 -106 -2z"/>
<path d="M5235 120 c-3 -5 1 -10 10 -10 9 0 13 5 10 10 -3 6 -8 10 -10 10 -2
0 -7 -4 -10 -10z"/>
<path d="M5275 120 c-3 -5 1 -10 10 -10 9 0 13 5 10 10 -3 6 -8 10 -10 10 -2
0 -7 -4 -10 -10z"/>
<path d="M5314 119 c-3 -5 22 -9 55 -9 34 0 61 4 61 9 0 12 -109 11 -116 0z"/>
<path d="M5725 120 c-3 -5 -1 -10 4 -10 6 0 11 5 11 10 0 6 -2 10 -4 10 -3 0
-8 -4 -11 -10z"/>
<path d="M5760 120 c0 -5 5 -10 10 -10 6 0 10 5 10 10 0 6 -4 10 -10 10 -5 0
-10 -4 -10 -10z"/>
<path d="M5800 120 c0 -5 5 -10 10 -10 6 0 10 5 10 10 0 6 -4 10 -10 10 -5 0
-10 -4 -10 -10z"/>
<path d="M5840 120 c0 -5 11 -10 25 -10 14 0 25 5 25 10 0 6 -11 10 -25 10
-14 0 -25 -4 -25 -10z"/>
<path d="M1000 80 l0 -40 445 0 c417 0 445 1 445 18 0 9 3 27 6 40 5 16 2 22
-10 22 -14 0 -16 -6 -10 -35 l6 -35 -436 0 -437 0 7 35 c4 23 2 35 -5 35 -6 0
-11 -17 -11 -40z"/>
<path d="M1910 96 c0 -59 -27 -56 450 -56 l438 0 6 31 c8 42 8 49 -4 49 -5 0
-10 -16 -10 -35 l0 -35 -430 0 -430 0 0 35 c0 19 -4 35 -10 35 -5 0 -10 -11
-10 -24z"/>
<path d="M2824 89 c3 -17 6 -35 6 -40 0 -5 195 -9 439 -9 391 0 440 2 445 16
9 25 7 64 -4 64 -5 0 -10 -16 -10 -35 l0 -35 -430 0 -430 0 0 35 c0 19 -5 35
-11 35 -8 0 -9 -11 -5 -31z"/>
<path d="M3734 98 c3 -13 6 -31 6 -40 0 -17 28 -18 445 -18 l445 0 0 40 c0 23
-5 40 -11 40 -7 0 -9 -12 -5 -35 l7 -35 -437 0 -436 0 6 35 c6 29 4 35 -10 35
-12 0 -15 -6 -10 -22z"/>
<path d="M4650 80 l0 -40 445 0 c417 0 445 1 445 18 0 9 3 27 6 40 5 16 2 22
-10 22 -14 0 -16 -6 -10 -35 l6 -35 -435 0 -436 0 6 35 c4 23 2 35 -6 35 -6 0
-11 -17 -11 -40z"/>
<path d="M5560 96 c0 -57 -4 -56 204 -54 l191 3 -187 2 -188 3 0 35 c0 19 -4
35 -10 35 -5 0 -10 -11 -10 -24z"/>
</g>
</svg>
